<?xml version="1.0" standalone="no"?><svg xmlns="http://www.w3.org/2000/svg" viewBox="0 0 1440 320">
 <linearGradient id="grad1" x1="0%" y1="0%" x2="100%" y2="0%">
      <stop offset="0%" style="stop-color:#6fa9a5;stop-opacity:1" />
      <stop offset="100%" style="stop-color:#88a8a6;stop-opacity:1" />
    </linearGradient>
<path fill="url(#grad1)" fill-opacity="1" d="M0,320L16,298.7C32,277,64,235,96,208C128,181,160,171,192,176C224,181,256,203,288,202.7C320,203,352,181,384,160C416,139,448,117,480,96C512,75,544,53,576,42.7C608,32,640,32,672,69.3C704,107,736,181,768,224C800,267,832,277,864,272C896,267,928,245,960,213.3C992,181,1024,139,1056,117.3C1088,96,1120,96,1152,106.7C1184,117,1216,139,1248,154.7C1280,171,1312,181,1344,186.7C1376,192,1408,192,1424,192L1440,192L1440,0L1424,0C1408,0,1376,0,1344,0C1312,0,1280,0,1248,0C1216,0,1184,0,1152,0C1120,0,1088,0,1056,0C1024,0,992,0,960,0C928,0,896,0,864,0C832,0,800,0,768,0C736,0,704,0,672,0C640,0,608,0,576,0C544,0,512,0,480,0C448,0,416,0,384,0C352,0,320,0,288,0C256,0,224,0,192,0C160,0,128,0,96,0C64,0,32,0,16,0L0,0Z"></path></svg>